<?xml version="1.0" encoding="iso-8859-1"?>
<!-- Generator: Adobe Illustrator 19.1.0, SVG Export Plug-In . SVG Version: 6.00 Build 0)  -->
<svg version="1.1" id="Layer_1" xmlns="http://www.w3.org/2000/svg" xmlns:xlink="http://www.w3.org/1999/xlink" x="0px" y="0px"
	 viewBox="0 0 12 12" style="enable-background:new 0 0 12 12;" xml:space="preserve">
<g>
	<path style="fill:#0B7008;" d="M6.137,7.631c-0.024,0-0.045-0.018-0.048-0.042C6.085,7.563,6.104,7.538,6.13,7.534
		c0.835-0.115,1.421-0.888,1.305-1.724C7.392,5.49,7.225,5.205,6.967,5.009C6.708,4.814,6.389,4.73,6.068,4.775
		C5.543,4.847,5.175,5.333,5.247,5.858c0.028,0.201,0.132,0.379,0.294,0.501c0.162,0.122,0.361,0.174,0.562,0.147
		c0.326-0.045,0.555-0.347,0.51-0.674C6.596,5.709,6.532,5.599,6.432,5.523c-0.1-0.076-0.223-0.108-0.347-0.091
		C5.989,5.446,5.903,5.496,5.844,5.574C5.786,5.652,5.76,5.748,5.774,5.844c0.021,0.154,0.164,0.262,0.318,0.241
		C6.21,6.069,6.293,5.959,6.276,5.841C6.264,5.752,6.182,5.69,6.092,5.702C6.066,5.706,6.041,5.687,6.038,5.661
		C6.034,5.634,6.053,5.61,6.079,5.606c0.142-0.02,0.274,0.08,0.294,0.222c0.024,0.171-0.096,0.33-0.267,0.353
		C5.898,6.21,5.706,6.065,5.677,5.857C5.661,5.735,5.692,5.614,5.767,5.515C5.841,5.417,5.95,5.353,6.072,5.336
		C6.221,5.316,6.37,5.354,6.491,5.446c0.12,0.091,0.198,0.224,0.219,0.373c0.052,0.38-0.214,0.731-0.593,0.783
		C5.89,6.634,5.665,6.575,5.482,6.437C5.3,6.299,5.182,6.098,5.151,5.871c-0.08-0.578,0.326-1.113,0.904-1.193
		C6.77,4.579,7.433,5.081,7.532,5.797c0.059,0.43-0.052,0.858-0.315,1.204c-0.262,0.346-0.644,0.57-1.074,0.629
		C6.142,7.631,6.139,7.631,6.137,7.631L6.137,7.631z"/>
	<g>
		<path style="fill:#5B25A9;" d="M2.388,10.401c-0.023,0-0.044-0.017-0.048-0.041C2.273,9.965,2.151,9.726,1.874,9.446
			c-0.019-0.019-0.019-0.05,0-0.069c0.019-0.019,0.05-0.019,0.069,0c0.289,0.292,0.422,0.554,0.492,0.966
			c0.004,0.026-0.013,0.052-0.04,0.056C2.393,10.4,2.391,10.401,2.388,10.401L2.388,10.401z"/>
		<path style="fill:#5B25A9;" d="M4.785,9.447c-0.021,0-0.041-0.014-0.047-0.036c-0.007-0.026,0.008-0.053,0.034-0.06
			c0.016-0.004,1.581-0.429,1.973-0.541c0.446-0.127,0.713-0.224,0.653-0.494C7.377,8.216,7.328,8.145,7.254,8.105
			C7.134,8.04,6.987,8.073,6.963,8.083C6.95,8.088,6.63,8.21,5.802,8.45C5.089,8.657,3.728,8.577,3.67,8.573
			C3.648,8.572,3.63,8.556,3.625,8.534C3.621,8.513,3.632,8.491,3.651,8.481c0.007-0.004,0.705-0.353,0.896-0.498
			C4.641,7.911,4.747,7.776,4.76,7.609c0.01-0.129-0.037-0.25-0.142-0.36C4.46,7.083,4.284,7.206,4.01,7.421
			C3.886,7.518,3.757,7.619,3.624,7.679C3.409,7.775,3.113,7.856,2.852,7.928C2.64,7.986,2.458,8.037,2.382,8.077
			c-0.139,0.075-0.653,0.637-0.84,0.848C1.539,8.929,1.535,8.933,1.53,8.935L0.744,9.379C0.721,9.392,0.691,9.384,0.678,9.361
			C0.665,9.337,0.673,9.308,0.696,9.295l0.779-0.44C1.544,8.777,2.16,8.087,2.336,7.992c0.086-0.046,0.273-0.098,0.489-0.157
			c0.258-0.071,0.55-0.152,0.758-0.245C3.707,7.535,3.83,7.438,3.95,7.345c0.252-0.197,0.512-0.401,0.739-0.163
			c0.123,0.129,0.181,0.279,0.168,0.435C4.841,7.815,4.717,7.976,4.606,8.06C4.466,8.167,4.082,8.37,3.859,8.484
			C4.262,8.499,5.23,8.515,5.775,8.357c0.824-0.239,1.14-0.36,1.153-0.365C6.968,7.977,7.147,7.936,7.3,8.019
			c0.1,0.054,0.165,0.147,0.194,0.276c0.084,0.38-0.326,0.496-0.722,0.609C6.38,9.016,4.814,9.441,4.798,9.445
			C4.794,9.447,4.79,9.447,4.785,9.447L4.785,9.447z"/>
		<path style="fill:#5B25A9;" d="M1.618,11c-0.016,0-0.031-0.007-0.04-0.021c-0.015-0.022-0.009-0.052,0.013-0.068l0.795-0.541
			c0.011-0.007,0.024-0.01,0.036-0.008c0.009,0.002,0.889,0.163,1.848-0.143C5.24,9.911,7.759,8.78,7.784,8.769
			C7.805,8.76,8.258,8.571,8.12,8.199C8.052,7.973,7.926,7.9,7.698,7.952C7.672,7.958,7.646,7.942,7.64,7.916
			C7.634,7.889,7.65,7.863,7.677,7.857c0.278-0.064,0.453,0.037,0.536,0.31c0.136,0.366-0.196,0.612-0.39,0.691
			C7.799,8.869,5.275,10.002,4.3,10.312c-0.902,0.287-1.737,0.171-1.876,0.149l-0.779,0.53C1.637,10.997,1.628,11,1.618,11L1.618,11
			z"/>
	</g>
	<g>
		<path style="fill:#5B25A9;" d="M10.591,2.637c-0.013,0-0.025-0.005-0.035-0.014c-0.289-0.292-0.422-0.554-0.492-0.966
			C10.06,1.63,10.078,1.605,10.104,1.6c0.027-0.004,0.052,0.013,0.056,0.04c0.067,0.395,0.189,0.634,0.466,0.914
			c0.019,0.019,0.019,0.05,0,0.069C10.616,2.632,10.603,2.637,10.591,2.637L10.591,2.637z"/>
		<path style="fill:#5B25A9;" d="M8.04,4.926c-0.079,0-0.155-0.031-0.228-0.108C7.689,4.689,7.631,4.539,7.643,4.383
			c0.016-0.198,0.14-0.359,0.251-0.443C8.034,3.833,8.418,3.63,8.64,3.516C8.238,3.501,7.27,3.485,6.725,3.643
			c-0.824,0.239-1.14,0.36-1.153,0.365C5.532,4.023,5.353,4.064,5.2,3.981C5.1,3.927,5.035,3.834,5.007,3.705
			c-0.084-0.38,0.326-0.496,0.722-0.609C6.12,2.984,7.686,2.559,7.702,2.555c0.026-0.007,0.053,0.008,0.06,0.034
			c0.007,0.026-0.008,0.053-0.034,0.06C7.712,2.653,6.146,3.078,5.755,3.189C5.309,3.316,5.042,3.413,5.102,3.684
			c0.022,0.101,0.071,0.172,0.145,0.212c0.12,0.065,0.267,0.031,0.291,0.022C5.55,3.912,5.87,3.79,6.698,3.55
			C7.411,3.343,8.772,3.424,8.83,3.427c0.022,0.001,0.04,0.017,0.045,0.039c0.004,0.022-0.006,0.043-0.026,0.053
			C8.842,3.523,8.144,3.872,7.953,4.017C7.859,4.089,7.753,4.224,7.74,4.391c-0.01,0.129,0.037,0.25,0.142,0.36
			C8.04,4.917,8.216,4.794,8.49,4.579c0.124-0.097,0.253-0.198,0.386-0.258c0.215-0.096,0.511-0.178,0.772-0.249
			c0.211-0.058,0.393-0.108,0.469-0.149c0.139-0.075,0.653-0.637,0.84-0.848c0.004-0.004,0.008-0.007,0.012-0.01l0.786-0.444
			c0.024-0.013,0.053-0.005,0.066,0.018c0.013,0.023,0.005,0.053-0.018,0.066l-0.779,0.44c-0.069,0.078-0.685,0.768-0.861,0.863
			c-0.086,0.046-0.273,0.097-0.489,0.157C9.416,4.237,9.124,4.317,8.916,4.41C8.793,4.465,8.67,4.562,8.55,4.655
			C8.38,4.789,8.205,4.926,8.04,4.926L8.04,4.926z"/>
		<path style="fill:#5B25A9;" d="M4.674,4.161c-0.193,0-0.32-0.109-0.387-0.329C4.152,3.467,4.483,3.22,4.677,3.142
			C4.701,3.131,7.225,1.998,8.2,1.688c0.902-0.287,1.736-0.171,1.876-0.149l0.779-0.53c0.022-0.015,0.052-0.009,0.068,0.013
			c0.015,0.022,0.009,0.052-0.013,0.068L10.114,1.63c-0.011,0.007-0.024,0.01-0.036,0.008C10.069,1.636,9.189,1.475,8.229,1.78
			C7.26,2.089,4.741,3.22,4.716,3.231C4.695,3.24,4.242,3.43,4.38,3.801C4.448,4.028,4.574,4.1,4.802,4.048
			c0.026-0.006,0.052,0.01,0.058,0.036c0.006,0.026-0.01,0.052-0.036,0.058C4.77,4.155,4.72,4.161,4.674,4.161L4.674,4.161z"/>
	</g>
</g>
<g>
</g>
<g>
</g>
<g>
</g>
<g>
</g>
<g>
</g>
<g>
</g>
</svg>
