<?xml version="1.0" encoding="utf-8"?>
<!-- Generator: Adobe Illustrator 19.1.0, SVG Export Plug-In . SVG Version: 6.00 Build 0)  -->
<svg version="1.1" id="Layer_1" xmlns="http://www.w3.org/2000/svg" xmlns:xlink="http://www.w3.org/1999/xlink" x="0px" y="0px"
	 viewBox="0 0 53 79.6" style="enable-background:new 0 0 53 79.6;" xml:space="preserve">
<style type="text/css">
	.st0{fill:#5B25A9;}
	.st1{fill:#0B7008;}
</style>
<path class="st0" d="M12.5,29.8H6.6V17.6c0-0.3-0.2-0.5-0.5-0.5c-0.3,0-0.5,0.2-0.5,0.5v12.2H0.5C0.2,29.8,0,30,0,30.3v48.8
	c0,0.3,0.2,0.5,0.5,0.5h12c0.3,0,0.5-0.2,0.5-0.5V30.3C13,30,12.8,29.8,12.5,29.8z M12,78.6H1V30.8h11V78.6z M48.4,52.4H36.2V40.2
	c0-0.3-0.2-0.5-0.5-0.5s-0.5,0.2-0.5,0.5v12.2H23.5c-3.6,0-4.9,8.7-4.9,14.5c0,3.3,0.4,6.4,1.1,8.6c1.1,3.4,2.7,4.1,3.8,4.1h25
	c1.1,0,2.7-0.6,3.7-3.5c0.6-1.9,1-4.5,1-7.6C53,61.9,51.4,52.4,48.4,52.4z M51.1,75.8c-0.6,1.9-1.5,2.8-2.7,2.8h-25
	c-1.5,0-2.4-1.9-2.9-3.4c-0.7-2.1-1-5-1-8.3c0-7.3,1.8-13.5,3.9-13.5h25c1.6,0,3.6,7.3,3.6,15.1C52,71.5,51.7,74,51.1,75.8z"/>
<path class="st1" d="M3.9,23.7c-0.1,0-0.2,0-0.3-0.1c-3.5-3-2.6-6-1.2-11C3.3,9.5,4.5,5.7,5,0.5C5.1,0.2,5.3,0,5.6,0
	C5.8,0,6,0.2,6,0.5c0,3.3,1.2,6.5,2.3,9.6c1.8,5,3.5,9.6,0.1,13.4c-0.2,0.2-0.5,0.2-0.7,0c-0.2-0.2-0.2-0.5,0-0.7
	c2.9-3.3,1.4-7.5-0.3-12.3c-0.7-2-1.5-4-1.9-6.1c-0.6,3.4-1.4,6.2-2.1,8.5c-1.4,4.9-2.2,7.4,0.8,9.9c0.2,0.2,0.2,0.5,0.1,0.7
	C4.2,23.6,4,23.7,3.9,23.7L3.9,23.7z M33.5,46.3c0.1,0,0.3-0.1,0.4-0.2c0.2-0.2,0.2-0.5-0.1-0.7c-3-2.5-2.3-5-0.8-9.9
	c0.7-2.3,1.5-5.1,2.1-8.5c0.5,2.1,1.2,4.1,1.9,6.1c1.8,4.9,3.3,9.1,0.3,12.3c-0.2,0.2-0.2,0.5,0,0.7c0.2,0.2,0.5,0.2,0.7,0
	c3.4-3.7,1.7-8.4-0.1-13.4c-1.1-3.1-2.3-6.4-2.3-9.6c0-0.3-0.2-0.5-0.5-0.5c-0.3,0-0.5,0.2-0.5,0.5c-0.6,5.2-1.7,9-2.6,12.1
	c-1.5,5-2.4,8,1.2,11C33.2,46.2,33.3,46.3,33.5,46.3L33.5,46.3z"/>
</svg>
