<?xml version="1.0" encoding="utf-8"?>
<!-- Generator: Adobe Illustrator 19.1.0, SVG Export Plug-In . SVG Version: 6.00 Build 0)  -->
<svg version="1.1" id="Layer_1" xmlns="http://www.w3.org/2000/svg" xmlns:xlink="http://www.w3.org/1999/xlink" x="0px" y="0px"
	 viewBox="0 0 79.2 79.2" style="enable-background:new 0 0 79.2 79.2;" xml:space="preserve">
<style type="text/css">
	.st0{fill:#5B25A9;}
	.st1{fill:#0B7008;}
</style>
<path class="st0" d="M36,16.3c0.4,2.9,1.9,4.9,3.7,4.9l0.1,0c1.6,0,3.5-0.7,3.9-4.2l0-0.1c0.2-2.2,0.4-4.4-0.3-5.2
	c-0.5-0.7-1.6-0.7-2.5-0.7c-0.4,0-0.8,0-1.1,0c-0.3,0-0.5,0-0.7,0c-1.2,0-2.4,0.2-3.2,1.8c-0.3,0.7-0.1,1.9,0,2.9
	C35.9,16,36,16.1,36,16.3z M42.8,16.8L42.8,16.8c-0.3,2.4-1.3,3.6-3.1,3.6l-0.1,0c-1.3,0-2.5-1.8-2.9-4.2c0.1,0,0.1-0.1,0.2-0.2
	l1.1-2.4l3.7-0.2l1.1,2.3c0,0,0,0.1,0.1,0.1C42.9,16.2,42.9,16.6,42.8,16.8z M36.6,13.2c0.6-1.2,1.3-1.4,2.5-1.4c0.2,0,0.4,0,0.7,0
	c0.3,0,0.7,0,1.1,0c1.2,0,1.7,0.2,1.8,0.4c0.2,0.3,0.3,1.1,0.3,1.9l-0.6-1.3c-0.1-0.2-0.2-0.2-0.4-0.2l-4.3,0.2
	c-0.2,0-0.3,0.1-0.3,0.2l-0.9,1.9C36.5,14.3,36.4,13.6,36.6,13.2z M66.7,22c-0.7,0-6.7,0.2-12.3,0.3l10.5-9.7
	c0.9-0.9,1.1-1.9,0.3-2.8c-1.3-1.4-2.6-0.5-3.1-0.1c-1,0.7-14.9,10.9-17.5,12.7L44,21.7c-0.2-0.2-0.4-0.2-0.6,0
	c-0.2,0.2-0.2,0.4,0,0.6l0.7,0.7c0,0.1,0,0.2,0.1,0.2c0.1,0.1,0.3,0.2,0.4,0.2c0,0,0.1,0,0.1,0c0.1,0,3.5-0.1,7.6-0.2l-4.6,4.3
	c-0.1,0.1-0.1,0.1-0.1,0.2c-0.1,0.1-0.1,0.2-0.1,0.2c0,0.2-1.3,21.7-1.6,29.7c0,0.5,0,1.1-0.1,1.7c-2.7-4.8-5-9.1-5.2-9.5
	c0,0,0,0,0,0c0,0,0-0.1-0.1-0.1c0,0,0,0,0,0c0,0-0.1,0-0.1-0.1c0,0,0,0,0,0c0,0,0,0,0,0c-0.2-0.1-0.4,0-0.5,0.2
	c-0.2,0.4-2.7,4.7-5.4,9.6c-0.1-2.6-0.2-5.3-0.3-7.9c-0.2-5.7-0.4-11.6-0.9-17.5l-1.1-6.3c0,0,0,0,0,0c0-0.1,0-0.1-0.1-0.2
	c0,0,0,0,0,0c0,0,0,0,0,0l-4.6-4.3c4.3,0.1,7.9,0.2,8,0.2c0.1,0,0.2,0,0.2-0.1l1.3-0.8c0.2-0.1,0.2-0.4,0.1-0.6
	c-0.1-0.2-0.4-0.2-0.6-0.1l-1.2,0.7c-1.6-1.1-16.8-12.2-17.7-12.9c-0.5-0.4-1.8-1.3-3.1,0.1c-0.7,0.9-0.6,1.9,0.4,2.8l10.5,9.7
	C19.7,22.1,13.9,22,13.3,22c-0.7,0-2.2,0-2.5,1.9c-0.1,1.1,0.6,1.9,1.9,2.1l18.6,2.1l1.1,6c0.4,4.7,0.6,9.4,0.8,14.1
	c-0.1,0-0.2,0.1-0.2,0.2L31.7,51c-1,2.2-2.2,4.7-3.4,7.4c-1,2.2-2,4.4-3,6.7c-0.7,1.5-1.3,3.1-2,4.6l-0.3,0.7
	c-0.2,0.4-0.3,0.7-0.5,1.1c-0.4,0.9-0.7,2.7,0.9,3.7c0.5,0.3,1.1,0.5,1.5,0.5c0.2,0,0.4,0,0.6-0.1c0.6-0.2,1.1-0.6,1.5-1.3
	c0.2-0.4,3.4-6.2,6.7-12c0.3,5,0.7,10,1.4,15.1c0.2,0.9,1.1,1.6,2.5,1.8c0.1,0,0.2,0,0.2,0c0.6,0,1.2-0.2,1.6-0.6
	c0.3-0.3,0.5-0.6,0.4-0.9c0.4-5.2,0.5-10.8,0.5-16.1c0-3.5,0.1-6.8,0.2-10c1,1.9,3,5.5,5.2,9.4c-0.1,3.3-0.3,6.8-0.6,11l0,0.5
	c-0.1,1.4-0.3,5-1.1,5.5c-0.5,0.3-1.3,0.3-1.9,0c-0.3-0.1-0.7-0.4-0.7-0.9c0-0.2-0.2-0.4-0.4-0.4c-0.2,0-0.4,0.2-0.4,0.4
	c0.1,0.7,0.5,1.3,1.2,1.6c0.4,0.2,0.8,0.3,1.3,0.3c0.5,0,1-0.1,1.4-0.4c1.1-0.7,1.3-3.4,1.5-6.2l0-0.5c0.2-3.6,0.4-6.7,0.5-9.6
	c3.2,5.8,6.4,11.6,6.6,12c0.4,0.7,0.9,1.1,1.5,1.3c0.2,0.1,0.4,0.1,0.6,0.1c0.5,0,1-0.2,1.5-0.5c1.6-0.9,1.3-2.8,0.9-3.7
	c-0.2-0.4-0.3-0.7-0.5-1.1l-0.3-0.7c-0.7-1.5-1.3-3.1-2-4.6c-1-2.3-2-4.5-3-6.7c-1.2-2.6-2.4-5.2-3.4-7.4l-1.2-2.6
	c0.5-8.3,1.1-18.2,1.2-20.2L67.4,26c1.3-0.2,2-1,1.9-2.1C69,22,67.4,22,66.7,22z M15.3,12c-0.4-0.4-0.8-1.1-0.3-1.7
	c0.7-0.8,1.3-0.5,2.1,0c0.9,0.6,13.1,9.5,16.8,12.2c-1.6,0-4.4-0.1-7.4-0.2L15.3,12z M12.8,25.2c-0.6-0.1-1.3-0.4-1.2-1.2
	c0.2-1.1,0.8-1.2,1.7-1.2c0.7,0,7.1,0.2,12.8,0.3l4.4,4.1L12.8,25.2z M26.3,73.8c-0.1,0.3-0.5,0.8-1,0.9c-0.4,0.1-0.9,0-1.5-0.3
	c-1.4-0.8-0.6-2.6-0.6-2.6c0.2-0.4,0.3-0.7,0.5-1.1l0.3-0.7c0.7-1.5,1.3-3.1,2-4.6c1-2.2,2-4.5,3-6.7c1.2-2.6,2.4-5.2,3.4-7.4
	l0.8-1.7c0,0.6,0,1.2,0.1,1.8c0.1,3,0.2,6.1,0.3,9.2C30.1,66.8,26.5,73.4,26.3,73.8z M39,77.5c0,0.1-0.1,0.2-0.2,0.3
	c-0.3,0.2-0.8,0.4-1.2,0.4c-1-0.1-1.7-0.5-1.8-1.1c-0.8-5.5-1.2-10.9-1.5-16.3c2.2-3.9,4.3-7.7,5.3-9.5c-0.1,3.2-0.2,6.6-0.2,10.1
	C39.5,66.8,39.4,72.3,39,77.5z M47.6,51.4c1,2.2,2.2,4.7,3.4,7.4c1,2.2,2,4.4,3,6.7c0.7,1.5,1.3,3.1,2,4.6l0.3,0.7
	c0.2,0.4,0.3,0.7,0.5,1.1c0,0.1,0.8,1.9-0.6,2.6c-0.6,0.3-1.1,0.4-1.5,0.3c-0.5-0.2-0.9-0.6-1-0.9c-0.2-0.4-3.8-7-7.2-13.2
	c0-1,0.1-2,0.1-3c0.1-1.9,0.2-4.5,0.4-7.5L47.6,51.4z M45.8,22.5c3.7-2.7,15.9-11.6,16.8-12.2c0.7-0.5,1.3-0.8,2,0
	c0.5,0.7,0.1,1.3-0.3,1.7L53.2,22.3C50.1,22.4,47.3,22.5,45.8,22.5z M67.2,25.2L49,27.3l4.6-4.2c5.8-0.2,12.5-0.3,13.2-0.3
	c0.9,0,1.5,0.1,1.7,1.1C68.5,24.8,67.8,25.1,67.2,25.2z"/>
<path class="st1" d="M39.6,79.2C17.8,79.2,0,61.4,0,39.6S17.8,0,39.6,0s39.6,17.8,39.6,39.6S61.4,79.2,39.6,79.2L39.6,79.2z
	 M39.6,0.8C18.2,0.8,0.8,18.2,0.8,39.6s17.4,38.8,38.8,38.8S78.4,61,78.4,39.6S61,0.8,39.6,0.8L39.6,0.8z M70,78.7H9.6
	c-0.2,0-0.4-0.2-0.4-0.4V8.6c0-0.2,0.2-0.4,0.4-0.4H70c0.2,0,0.4,0.2,0.4,0.4v69.7C70.4,78.5,70.2,78.7,70,78.7L70,78.7z M10,77.9
	h59.6V9H10V77.9L10,77.9z"/>
</svg>
